<?xml version="1.0" encoding="UTF-8" standalone="no"?>
<!-- Created with Inkscape (http://www.inkscape.org/) -->

<svg
   width="210mm"
   height="297mm"
   viewBox="0 0 210 297"
   version="1.1"
   id="svg5"
   inkscape:version="1.1 (c68e22c387, 2021-05-23)"
   sodipodi:docname="Gwav Logo.svg"
   xmlns:inkscape="http://www.inkscape.org/namespaces/inkscape"
   xmlns:sodipodi="http://sodipodi.sourceforge.net/DTD/sodipodi-0.dtd"
   xmlns="http://www.w3.org/2000/svg"
   xmlns:svg="http://www.w3.org/2000/svg">
  <sodipodi:namedview
     id="namedview7"
     pagecolor="#ffffff"
     bordercolor="#666666"
     borderopacity="1.0"
     inkscape:pageshadow="2"
     inkscape:pageopacity="0.0"
     inkscape:pagecheckerboard="0"
     inkscape:document-units="mm"
     showgrid="false"
     inkscape:zoom="0.24943884"
     inkscape:cx="184.41395"
     inkscape:cy="511.14735"
     inkscape:window-width="1366"
     inkscape:window-height="745"
     inkscape:window-x="-8"
     inkscape:window-y="-8"
     inkscape:window-maximized="1"
     inkscape:current-layer="layer1" />
  <defs
     id="defs2" />
  <g
     inkscape:label="Layer 1"
     inkscape:groupmode="layer"
     id="layer1">
    <path
       style="fill:#000000;stroke-width:0.603823"
       id="path5405"
       d="" />
    <g
       id="g11198"
       transform="translate(-3.1821428)">
      <path
         id="path5913"
         style="fill:#272727;stroke-width:2.28217"
         d="m 426.1582,282.4668 c -3.18833,0 -14.05234,14.69282 -18.57031,25.11523 -5.66721,13.07333 -5.54959,23.82195 0.35547,32.32227 5.23056,7.52936 5.72795,15.76562 3.25976,53.96875 -0.88841,13.75117 -2.30692,21.90926 -3.6621,21.05078 -3.83914,-2.43205 -19.66016,-39.27918 -19.66016,-45.78906 0,-3.42471 2.03021,-8.87047 4.50976,-12.10157 6.30664,-8.21812 5.6252,-18.39332 -2.32031,-34.6914 -7.35141,-15.07935 -11.90265,-20.3399 -15.58398,-18.00782 -1.27752,0.80929 -4.48161,8.75562 -7.11914,17.65625 -5.85547,19.76002 -4.64449,27.97656 5.74219,38.98633 4.61792,4.89498 8.28849,11.58525 9.21874,16.79883 1.91029,10.70655 -1.18895,11.2827 -8.36328,1.55469 -13.22714,-17.93553 -13.87365,-18.30771 -31.62695,-18.26953 -21.25048,0.0457 -24.27392,1.86987 -18.01953,10.87304 2.5849,3.72094 8.80524,9.68091 13.82422,13.2461 8.34533,5.92792 10.26131,6.35176 22.40625,4.94336 l 13.27929,-1.54102 9.59571,11.06055 c 12.65204,14.5824 22.02156,35.3955 23.69922,52.64844 l 1.34765,13.86328 -8.01758,-9.24219 c -4.40923,-5.08316 -10.81591,-16.52048 -14.23828,-25.41602 -6.20307,-16.12312 -6.2244,-16.14715 -6.92187,-7.50976 -0.38476,4.76545 -1.19611,8.66406 -1.80274,8.66406 -3.95678,0 -16.80052,-8.95821 -23.63867,-16.48828 -6.78314,-7.46948 -9.56876,-8.92773 -17.06054,-8.92773 -10.42331,-10e-6 -32.3125,6.18311 -32.3125,9.12695 0,2.70795 12.43034,13.28053 20.88086,17.75976 8.80964,4.66946 19.94499,4.60174 27.04101,-0.16406 5.41776,-3.63863 5.97578,-3.49933 15.30273,3.8125 5.32415,4.17388 10.05828,8.76435 10.51954,10.20117 1.22154,3.80485 -9.33813,5.86312 -16.25391,3.16797 -11.133,-4.33863 -16.70479,-2.70256 -28.14453,8.26563 -15.01048,14.39168 -13.48607,17.92347 7.21289,16.72461 14.9598,-0.86646 15.91337,-1.27851 23.01367,-9.94727 7.40757,-9.04392 7.40876,-9.04481 16.6875,-6.19531 5.89365,1.80994 11.42634,5.73489 15.16406,10.75781 10.17838,13.67834 12.44904,26.30106 12.14063,67.49609 -0.15409,20.58622 0.37867,38.5225 1.18359,39.85743 h -0.002 c 1.97019,3.26762 8.6809,3.07443 12.01758,-0.34571 1.71651,-1.75944 2.70508,-10.63346 2.70508,-24.28515 0,-25.20151 3.9593,-36.25918 18.02734,-50.33985 8.10618,-8.1134 9.40026,-8.65744 14.69727,-6.18359 8.50132,3.97032 15.46893,3.34873 27.04101,-2.41406 14.09114,-7.01719 13.28518,-13.09221 -2.28516,-17.21485 -6.19891,-1.64129 -12.40715,-3.00662 -13.79492,-3.02929 -2.91175,-0.0514 -22.86199,15.46232 -35.23242,27.39648 l -8.45312,8.1543 v -7.04297 c 0,-9.48556 14.04293,-31.11895 30.65429,-47.22461 17.63033,-17.09375 20.83085,-18.63985 35.1875,-16.98438 10.32726,1.19086 12.90432,0.6239 19.22656,-4.23828 4.01541,-3.08814 10.38382,-9.59238 14.15235,-14.45312 8.41262,-10.85061 6.62427,-12.57391 -13.11133,-12.62305 -16.75374,-0.0417 -25.80583,4.05665 -29.57617,13.38672 -1.68491,4.16954 -8.15657,10.26537 -17.10547,16.11328 -14.03883,9.17401 -14.33935,9.25651 -12.14258,3.33399 1.23889,-3.33997 6.25752,-9.86222 11.15235,-14.49414 8.04226,-7.61027 8.89805,-9.5136 8.88671,-19.75196 -0.0136,-12.27054 -3.67256,-28.66015 -6.39843,-28.66015 -2.92895,0 -17.72891,17.00624 -21.51758,24.72461 -4.54337,9.2587 -4.54019,12.43974 0.0293,22.26171 3.60687,7.75287 3.54179,8.09455 -4.68946,24.15039 -4.59209,8.9573 -10.40787,18.19172 -12.92383,20.51954 l -4.57421,4.23242 0.90039,-35.81446 c 0.77862,-30.96635 1.58728,-37.36509 5.9707,-47.28125 7.45073,-16.85522 10.39557,-19.45695 20.45312,-18.07421 7.26146,0.99828 9.75259,0.0578 16.9004,-6.375 12.51269,-11.26105 21.8662,-32.30383 14.3164,-32.20704 -6.76603,0.0867 -29.0371,6.56343 -33.97656,9.88086 -2.9754,1.99831 -5.99145,6.56382 -6.70117,10.14454 -0.70976,3.58073 -4.65246,10.98721 -8.76367,16.45898 l -7.47657,9.94726 -0.67578,-15.57421 c -0.64826,-14.93503 -0.39651,-15.80095 6.12109,-21.0293 8.38651,-6.72758 11.57012,-17.62306 9.10352,-31.15625 -2.27762,-12.49639 -8.74532,-29.53906 -11.21094,-29.53906 z m -34.78711,298.28711 c -4.99035,0.12205 -10.91027,1.20844 -18.50586,3.23632 -7.13977,1.90617 -19.2779,3.46485 -26.97461,3.46485 -18.1132,0 -19.59296,0.70833 -29.00976,13.85742 -4.49572,6.27757 -10.42646,11.70926 -13.70508,12.55273 -3.17903,0.81786 -5.37086,2.74943 -4.87109,4.29102 0.65447,2.01891 13.46729,3.12493 45.80664,3.95703 36.13382,0.92977 46.43769,1.928 52.78711,5.10938 10.24683,5.13396 25.04245,5.17107 35.57422,0.0898 6.7807,-3.27152 16.88104,-4.2645 52.90625,-5.19922 44.41421,-1.15238 51.28255,-2.65908 39.46484,-8.65625 -3.12106,-1.58385 -8.48486,-6.78068 -11.91992,-11.55078 -9.6186,-13.35681 -11.80906,-14.44828 -29.10742,-14.47852 -8.75146,-0.0151 -21.49175,-1.56149 -28.31055,-3.4375 -16.67562,-4.58789 -24.52588,-4.32012 -33.24805,1.13086 -7.30325,4.56427 -7.34905,4.56427 -14.65234,0 -4.93709,-3.0855 -9.81821,-4.52411 -16.23438,-4.36718 z m 46.5,9.07031 c 4.80038,-0.0422 10.4012,0.8116 16.50782,2.58008 4.95915,1.43614 17.00763,3.24867 26.77343,4.02929 16.66855,1.33244 18.09988,1.88034 23.39258,8.92969 l 5.63867,7.50781 h -37.13281 c -34.27026,0 -37.44746,0.35628 -41.21289,4.6211 -5.49645,6.22533 -27.53191,6.60692 -33.40234,0.57812 -3.33135,-3.42126 -9.70139,-4.22172 -41.39453,-5.19922 l -37.45704,-1.15429 6.17188,-7.50977 c 5.61464,-6.83097 7.32524,-7.5109 18.93359,-7.54492 7.01855,-0.0199 18.84646,-1.54173 26.28516,-3.38281 25.0125,-6.19057 35.23157,-3.42047 40.1543,10.88867 1.59144,4.62588 8.31054,3.05619 8.31054,-1.94141 0,-1.77021 2.02826,-5.29826 4.50782,-7.83984 2.9023,-2.97489 7.75191,-4.5083 13.92382,-4.5625 z m 53.51758,39.2207 c -39.66969,0 -49.4082,0.60848 -49.4082,3.08203 0,1.6944 0.6774,3.77395 1.50391,4.6211 0.8265,0.84722 24.04766,1.53906 51.60351,1.53906 41.15497,0 50.32115,-0.58359 51.32813,-3.27344 0.67423,-1.80102 -0.31446,-3.88053 -2.19727,-4.62109 -1.88277,-0.7406 -25.65626,-1.34766 -52.83008,-1.34766 z m -171.59961,0.38672 c -34.10329,-0.13898 -39.92717,1.23398 -36.82031,6.38672 1.07009,1.77471 17.14881,2.36668 52.66211,1.93555 43.6708,-0.53012 51.12305,-1.12728 51.12305,-4.08789 0,-2.95919 -7.38988,-3.556 -50.56055,-4.0879 -6.08251,-0.0749 -11.5324,-0.12663 -16.4043,-0.14648 z m 11.73828,45.82422 c -12.52306,0 -15.77929,0.71617 -15.77929,3.4668 0,1.90616 1.49637,3.46484 3.32422,3.46484 4.54693,0 8.16278,8.08801 17.88867,40.01172 4.57516,15.01731 9.25761,29.83432 10.40429,32.92578 1.14671,3.09146 3.05366,5.62109 4.23829,5.62109 1.18464,0 6.49246,-13.47524 11.79492,-29.94336 5.30244,-16.46812 10.19093,-29.39236 10.86328,-28.7207 0.67234,0.67162 5.7862,13.8038 11.36523,29.18164 5.57904,15.37784 11.21217,28.32065 12.51758,28.76172 1.30541,0.44107 7.89916,-16.11239 14.65235,-36.78516 9.83024,-30.09218 13.28907,-38.04118 17.3496,-39.86718 9.72242,-4.37216 5.88384,-8.11719 -8.32031,-8.11719 -14.60171,0 -19.57046,3.30879 -10.35937,6.89844 6.61273,2.57703 6.7535,1.06286 -3.32813,35.54297 l -6.16797,21.09765 -3.27539,-8.08594 c -1.80094,-4.44774 -6.74508,-18.22351 -10.98828,-30.61132 -4.24316,-12.38778 -8.89926,-22.52504 -10.3457,-22.52735 -1.4464,-0.002 -7.13193,13.77335 -12.63672,30.61133 l -10.00977,30.61328 -7.21093,-24.25976 c -3.96638,-13.34329 -7.66712,-25.65721 -8.22266,-27.36328 -0.55892,-1.71652 1.00796,-3.64243 3.50781,-4.3125 2.48468,-0.666 4.51758,-2.64828 4.51758,-4.40626 0,-2.417 -3.84749,-3.19726 -15.7793,-3.19726 z m 223.02735,0 c -12.06667,0 -15.64453,0.7557 -15.64453,3.30469 0,1.8178 2.2228,3.63885 4.93945,4.04492 4.07584,0.60926 7.2218,6.5945 18.00195,34.24023 7.18522,18.42645 14.07115,35.84189 15.30078,38.70118 1.22964,2.85925 3.06551,5.19921 4.08008,5.19921 1.01458,0 6.27785,-11.1769 11.69531,-24.83789 17.04446,-42.98026 22.50097,-53.7207 27.29493,-53.7207 2.38983,0 4.34375,-1.55868 4.34375,-3.46484 0,-2.69178 -2.98952,-3.4668 -13.39063,-3.4668 -13.40107,0 -20.54869,3.81077 -11.63086,6.20117 2.67353,0.7166 4.73438,3.14353 4.73438,5.57422 0,3.57033 -16.98922,50.25938 -19.08399,52.44531 -0.79547,0.83014 -21.49023,-51.86485 -21.49023,-54.7207 0,-1.1161 2.13005,-2.60075 4.73437,-3.29883 9.53167,-2.55492 1.36745,-6.20117 -13.88476,-6.20117 z m -298.04883,0.0312 c -31.041,-0.064 -49.59961,15.91748 -49.59961,42.71289 0,18.70911 9.67918,32.92394 26.91602,39.52734 5.82026,2.2297 14.21878,2.99344 25.57226,2.32227 24.60089,-1.45433 24.79688,-1.60285 24.79688,-18.74414 0,-10.7788 0.87154,-14.86649 3.38086,-15.85352 8.20303,-3.2265 2.42895,-6.0957 -12.26563,-6.0957 -17.11741,0 -21.97628,2.80694 -11.40039,6.58594 6.31313,2.25581 6.75977,3.19148 6.75977,14.14648 0,10.62323 -0.57524,11.95333 -6.09766,14.10547 -8.47561,3.30301 -22.12555,0.45394 -29.88477,-6.23828 -14.13573,-12.19193 -17.33923,-38.91377 -6.52929,-54.47461 12.407,-17.85982 41.9868,-17.57232 49.28125,0.47852 3.8777,9.59569 7.3211,5.57386 5.45703,-6.375 -1.7221,-11.03879 -3.92817,-12.05117 -26.38672,-12.09766 z m 230.38476,1.125 c -1.72346,0 -9.19742,15.54984 -17.76757,36.9668 -11.05716,27.63197 -16.06957,37.5452 -19.8418,39.25 -2.77576,1.25442 -5.04687,3.07352 -5.04687,4.04297 0,0.96944 6.08667,1.76367 13.52539,1.76367 13.30919,0 18.04371,-2.87182 8.81445,-5.34571 -3.74544,-1.00391 -4.37627,-2.36042 -3.08008,-6.62304 4.89441,-16.09531 4.48982,-15.75782 18.97656,-15.75782 13.44257,0 13.5766,0.0668 16.96094,8.36914 4.31025,10.57403 4.3198,14.73633 0.0312,14.73633 -1.85968,0 -3.38281,1.03976 -3.38281,2.31055 0,1.3203 6.7627,2.31055 15.7793,2.31055 9.01662,0 15.77929,-0.99025 15.77929,-2.31055 0,-1.27079 -1.39761,-2.31055 -3.10547,-2.31055 -5.30615,0 -8.28457,-5.78966 -21.68164,-42.15234 -7.7108,-20.92891 -14.19465,-35.25 -15.96094,-35.25 z m -3.56835,16.92187 5.21484,14.64454 c 2.86836,8.05394 5.23305,14.90284 5.25195,15.2207 0.0206,0.31759 -4.52643,0.57812 -10.10547,0.57812 -11.88083,0 -12.22252,-1.19116 -5.2539,-18.3789 z"
         transform="scale(0.26458333)" />
      <text
         xml:space="preserve"
         style="font-style:normal;font-variant:normal;font-weight:normal;font-stretch:normal;font-size:7.76111px;line-height:1.25;font-family:'Open Sans';-inkscape-font-specification:'Open Sans';letter-spacing:0px;word-spacing:0px;stroke-width:0.264583"
         x="72.256233"
         y="212.40804"
         id="text2841"><tspan
           sodipodi:role="line"
           id="tspan2839"
           style="font-style:normal;font-variant:normal;font-weight:normal;font-stretch:normal;font-size:7.76111px;font-family:'Open Sans';-inkscape-font-specification:'Open Sans';stroke-width:0.264583"
           x="72.256233"
           y="212.40804">growing with a vision</tspan></text>
    </g>
  </g>
</svg>
